<svg xmlns="http://www.w3.org/2000/svg" viewBox="0 0 512 512">
  <rect width="512" height="512" rx="100" fill="#1E1B4B"/>
  <rect x="110" y="80" width="292" height="352" rx="20" fill="#4F46E5"/>
  <rect x="110" y="80" width="146" height="352" rx="20" fill="#3730A3"/>
  <rect x="145" y="140" width="220" height="14" rx="7" fill="white" opacity="0.9"/>
  <rect x="145" y="175" width="220" height="14" rx="7" fill="white" opacity="0.9"/>
  <rect x="145" y="210" width="160" height="14" rx="7" fill="white" opacity="0.9"/>
  <rect x="145" y="270" width="220" height="8" rx="4" fill="#C7D2FE" opacity="0.8"/>
  <rect x="145" y="294" width="220" height="8" rx="4" fill="#C7D2FE" opacity="0.8"/>
  <rect x="145" y="318" width="220" height="8" rx="4" fill="#C7D2FE" opacity="0.8"/>
  <rect x="145" y="342" width="150" height="8" rx="4" fill="#C7D2FE" opacity="0.8"/>
  <line x1="256" y1="130" x2="256" y2="432" stroke="#6366F1" stroke-width="3" opacity="0.4"/>
  <circle cx="358" cy="358" r="64" fill="#F59E0B"/>
  <line x1="358" y1="330" x2="358" y2="386" stroke="white" stroke-width="12" stroke-linecap="round"/>
  <line x1="330" y1="358" x2="386" y2="358" stroke="white" stroke-width="12" stroke-linecap="round"/>
</svg>
